<mxfile host="Electron" modified="2024-03-01T02:23:52.895Z" agent="Mozilla/5.0 (Windows NT 10.0; Win64; x64) AppleWebKit/537.36 (KHTML, like Gecko) draw.io/21.2.8 Chrome/112.0.5615.165 Electron/24.2.0 Safari/537.36" etag="akWtMjDBr3QPRPHJ3g_X" version="21.2.8" type="device">
  <diagram name="Page-1" id="ZJziXxxdAj8SFKqpZ-4v">
    <mxGraphModel dx="1219" dy="713" grid="1" gridSize="10" guides="1" tooltips="1" connect="1" arrows="1" fold="1" page="1" pageScale="1" pageWidth="850" pageHeight="1100" background="none" math="0" shadow="0">
      <root>
        <mxCell id="0" />
        <mxCell id="1" parent="0" />
        <mxCell id="44k4_VBJVtMnTsJ_2v9P-7" style="edgeStyle=orthogonalEdgeStyle;rounded=0;orthogonalLoop=1;jettySize=auto;html=1;exitX=0.5;exitY=1;exitDx=0;exitDy=0;" parent="1" edge="1">
          <mxGeometry relative="1" as="geometry">
            <mxPoint x="440" y="210" as="sourcePoint" />
            <mxPoint x="440" y="210" as="targetPoint" />
          </mxGeometry>
        </mxCell>
        <mxCell id="44k4_VBJVtMnTsJ_2v9P-68" value="&lt;b&gt;&lt;font style=&quot;font-size: 18px;&quot;&gt;Flowchart Logout&amp;nbsp;&lt;/font&gt;&lt;/b&gt;" style="text;html=1;align=center;verticalAlign=middle;resizable=0;points=[];autosize=1;strokeColor=none;fillColor=none;" parent="1" vertex="1">
          <mxGeometry x="315" y="10" width="180" height="40" as="geometry" />
        </mxCell>
        <mxCell id="6W6a73ZQ8LbhypEmX5_w-8" style="edgeStyle=orthogonalEdgeStyle;rounded=0;orthogonalLoop=1;jettySize=auto;html=1;exitX=0.5;exitY=1;exitDx=0;exitDy=0;entryX=0.5;entryY=0;entryDx=0;entryDy=0;" parent="1" source="6W6a73ZQ8LbhypEmX5_w-3" target="6W6a73ZQ8LbhypEmX5_w-6" edge="1">
          <mxGeometry relative="1" as="geometry" />
        </mxCell>
        <mxCell id="6W6a73ZQ8LbhypEmX5_w-3" value="Mulai" style="rounded=1;whiteSpace=wrap;html=1;" parent="1" vertex="1">
          <mxGeometry x="372.5" y="60" width="65" height="20" as="geometry" />
        </mxCell>
        <mxCell id="82wfzjJn3ltqgQaWSVBa-1" style="edgeStyle=orthogonalEdgeStyle;rounded=0;orthogonalLoop=1;jettySize=auto;html=1;exitX=0.5;exitY=1;exitDx=0;exitDy=0;entryX=0.5;entryY=0;entryDx=0;entryDy=0;" edge="1" parent="1" source="6W6a73ZQ8LbhypEmX5_w-6" target="6W6a73ZQ8LbhypEmX5_w-46">
          <mxGeometry relative="1" as="geometry" />
        </mxCell>
        <mxCell id="6W6a73ZQ8LbhypEmX5_w-6" value="masuk&lt;br&gt;&amp;nbsp;ke data akun" style="shape=parallelogram;perimeter=parallelogramPerimeter;whiteSpace=wrap;html=1;fixedSize=1;" parent="1" vertex="1">
          <mxGeometry x="340" y="110" width="130" height="60" as="geometry" />
        </mxCell>
        <mxCell id="6W6a73ZQ8LbhypEmX5_w-44" value="Selesai" style="rounded=1;whiteSpace=wrap;html=1;" parent="1" vertex="1">
          <mxGeometry x="372.5" y="560" width="65" height="20" as="geometry" />
        </mxCell>
        <mxCell id="82wfzjJn3ltqgQaWSVBa-6" style="edgeStyle=orthogonalEdgeStyle;rounded=0;orthogonalLoop=1;jettySize=auto;html=1;exitX=0.5;exitY=1;exitDx=0;exitDy=0;entryX=0.5;entryY=0;entryDx=0;entryDy=0;" edge="1" parent="1" source="6W6a73ZQ8LbhypEmX5_w-46" target="6W6a73ZQ8LbhypEmX5_w-51">
          <mxGeometry relative="1" as="geometry" />
        </mxCell>
        <mxCell id="82wfzjJn3ltqgQaWSVBa-7" style="edgeStyle=orthogonalEdgeStyle;rounded=0;orthogonalLoop=1;jettySize=auto;html=1;exitX=1;exitY=0.5;exitDx=0;exitDy=0;entryX=0;entryY=0.5;entryDx=0;entryDy=0;" edge="1" parent="1" source="6W6a73ZQ8LbhypEmX5_w-46" target="6W6a73ZQ8LbhypEmX5_w-76">
          <mxGeometry relative="1" as="geometry" />
        </mxCell>
        <mxCell id="6W6a73ZQ8LbhypEmX5_w-46" value="Ingin Logout&amp;nbsp;&lt;br&gt;Akun?" style="rhombus;whiteSpace=wrap;html=1;" parent="1" vertex="1">
          <mxGeometry x="357.5" y="210" width="95" height="100" as="geometry" />
        </mxCell>
        <mxCell id="6W6a73ZQ8LbhypEmX5_w-57" style="edgeStyle=orthogonalEdgeStyle;rounded=0;orthogonalLoop=1;jettySize=auto;html=1;exitX=0.5;exitY=1;exitDx=0;exitDy=0;entryX=0.5;entryY=0;entryDx=0;entryDy=0;" parent="1" source="6W6a73ZQ8LbhypEmX5_w-51" target="6W6a73ZQ8LbhypEmX5_w-56" edge="1">
          <mxGeometry relative="1" as="geometry" />
        </mxCell>
        <mxCell id="6W6a73ZQ8LbhypEmX5_w-51" value="Keluarkan akun dari server" style="rounded=0;whiteSpace=wrap;html=1;" parent="1" vertex="1">
          <mxGeometry x="345" y="358" width="120" height="60" as="geometry" />
        </mxCell>
        <mxCell id="82wfzjJn3ltqgQaWSVBa-9" style="edgeStyle=orthogonalEdgeStyle;rounded=0;orthogonalLoop=1;jettySize=auto;html=1;exitX=0.5;exitY=1;exitDx=0;exitDy=0;entryX=0.5;entryY=0;entryDx=0;entryDy=0;" edge="1" parent="1" source="6W6a73ZQ8LbhypEmX5_w-56" target="6W6a73ZQ8LbhypEmX5_w-44">
          <mxGeometry relative="1" as="geometry" />
        </mxCell>
        <mxCell id="6W6a73ZQ8LbhypEmX5_w-56" value="Logout Berhasil" style="shape=parallelogram;perimeter=parallelogramPerimeter;whiteSpace=wrap;html=1;fixedSize=1;" parent="1" vertex="1">
          <mxGeometry x="340" y="460" width="130" height="60" as="geometry" />
        </mxCell>
        <mxCell id="82wfzjJn3ltqgQaWSVBa-8" style="edgeStyle=orthogonalEdgeStyle;rounded=0;orthogonalLoop=1;jettySize=auto;html=1;exitX=0.5;exitY=1;exitDx=0;exitDy=0;entryX=1;entryY=0.5;entryDx=0;entryDy=0;" edge="1" parent="1" source="6W6a73ZQ8LbhypEmX5_w-76" target="6W6a73ZQ8LbhypEmX5_w-44">
          <mxGeometry relative="1" as="geometry" />
        </mxCell>
        <mxCell id="6W6a73ZQ8LbhypEmX5_w-76" value="Akun Tersimpan" style="rounded=0;whiteSpace=wrap;html=1;" parent="1" vertex="1">
          <mxGeometry x="585" y="230" width="120" height="60" as="geometry" />
        </mxCell>
        <mxCell id="82wfzjJn3ltqgQaWSVBa-10" value="ya" style="text;html=1;align=center;verticalAlign=middle;resizable=0;points=[];autosize=1;strokeColor=none;fillColor=none;" vertex="1" parent="1">
          <mxGeometry x="350" y="298" width="40" height="30" as="geometry" />
        </mxCell>
        <mxCell id="82wfzjJn3ltqgQaWSVBa-11" value="tidak" style="text;html=1;align=center;verticalAlign=middle;resizable=0;points=[];autosize=1;strokeColor=none;fillColor=none;" vertex="1" parent="1">
          <mxGeometry x="445" y="228" width="50" height="30" as="geometry" />
        </mxCell>
      </root>
    </mxGraphModel>
  </diagram>
</mxfile>
